%TF.GenerationSoftware,KiCad,Pcbnew,9.0.7+dfsg-1*%
%TF.CreationDate,2026-03-06T14:44:18-06:00*%
%TF.ProjectId,cheating-calc,63686561-7469-46e6-972d-63616c632e6b,rev?*%
%TF.SameCoordinates,Original*%
%TF.FileFunction,Copper,L2,Bot*%
%TF.FilePolarity,Positive*%
%FSLAX46Y46*%
G04 Gerber Fmt 4.6, Leading zero omitted, Abs format (unit mm)*
G04 Created by KiCad (PCBNEW 9.0.7+dfsg-1) date 2026-03-06 14:44:18*
%MOMM*%
%LPD*%
G01*
G04 APERTURE LIST*
%TA.AperFunction,ComponentPad*%
%ADD10R,1.700000X1.700000*%
%TD*%
%TA.AperFunction,ComponentPad*%
%ADD11O,1.700000X1.700000*%
%TD*%
%TA.AperFunction,ComponentPad*%
%ADD12C,1.600000*%
%TD*%
%TA.AperFunction,ComponentPad*%
%ADD13O,1.600000X1.600000*%
%TD*%
%TA.AperFunction,ViaPad*%
%ADD14C,0.800000*%
%TD*%
G04 APERTURE END LIST*
D10*
%TO.P,J1,1,Pin_1*%
%TO.N,RING*%
X101092000Y-71628000D03*
D11*
%TO.P,J1,2,Pin_2*%
%TO.N,TIP*%
X98552000Y-71628000D03*
%TO.P,J1,3,Pin_3*%
%TO.N,GND*%
X96012000Y-71628000D03*
%TO.P,J1,4,Pin_4*%
%TO.N,+5V*%
X93472000Y-71628000D03*
%TD*%
D12*
%TO.P,R4,1*%
%TO.N,+5V*%
X112395000Y-54991000D03*
D13*
%TO.P,R4,2*%
%TO.N,TIP*%
X112395000Y-65151000D03*
%TD*%
D12*
%TO.P,R2,1*%
%TO.N,+3.3V*%
X130876000Y-54864000D03*
D13*
%TO.P,R2,2*%
%TO.N,TIP_GPIO*%
X130876000Y-65024000D03*
%TD*%
D12*
%TO.P,R3,1*%
%TO.N,+5V*%
X115824000Y-54991000D03*
D13*
%TO.P,R3,2*%
%TO.N,RING*%
X115824000Y-65151000D03*
%TD*%
D12*
%TO.P,R1,1*%
%TO.N,+3.3V*%
X127508000Y-54864000D03*
D13*
%TO.P,R1,2*%
%TO.N,RING_GPIO*%
X127508000Y-65024000D03*
%TD*%
D14*
%TO.N,+5V*%
X152019000Y-68199000D03*
%TO.N,+3.3V*%
X147320000Y-68199000D03*
X125095000Y-64135000D03*
X125095000Y-59055000D03*
%TD*%
%TA.AperFunction,Conductor*%
%TO.N,+5V*%
G36*
X156786802Y-52590185D02*
G01*
X156832557Y-52642989D01*
X156843763Y-52694500D01*
X156843763Y-73445704D01*
X156824078Y-73512743D01*
X156771274Y-73558498D01*
X156719763Y-73569704D01*
X151124000Y-73569704D01*
X151056961Y-73550019D01*
X151011206Y-73497215D01*
X151000000Y-73445704D01*
X151000000Y-53000000D01*
X119000000Y-53000000D01*
X119000000Y-67445551D01*
X118980315Y-67512590D01*
X118927511Y-67558345D01*
X118876000Y-67569551D01*
X110278129Y-67569551D01*
X110150833Y-67603659D01*
X110036707Y-67669551D01*
X110036704Y-67669553D01*
X109943523Y-67762734D01*
X109943521Y-67762737D01*
X109877629Y-67876863D01*
X109843521Y-68004159D01*
X109843521Y-73445704D01*
X109823836Y-73512743D01*
X109771032Y-73558498D01*
X109719521Y-73569704D01*
X85968500Y-73569704D01*
X85901461Y-73550019D01*
X85855706Y-73497215D01*
X85844500Y-73445704D01*
X85844500Y-71378000D01*
X92144769Y-71378000D01*
X93038988Y-71378000D01*
X93006075Y-71435007D01*
X92972000Y-71562174D01*
X92972000Y-71693826D01*
X93006075Y-71820993D01*
X93038988Y-71878000D01*
X92144769Y-71878000D01*
X92155242Y-71944126D01*
X92155242Y-71944129D01*
X92220904Y-72146217D01*
X92317379Y-72335557D01*
X92442272Y-72507459D01*
X92442276Y-72507464D01*
X92592535Y-72657723D01*
X92592540Y-72657727D01*
X92764442Y-72782620D01*
X92953782Y-72879095D01*
X93155871Y-72944757D01*
X93222000Y-72955231D01*
X93222000Y-72061012D01*
X93279007Y-72093925D01*
X93406174Y-72128000D01*
X93537826Y-72128000D01*
X93664993Y-72093925D01*
X93722000Y-72061012D01*
X93722000Y-72955230D01*
X93788126Y-72944757D01*
X93788129Y-72944757D01*
X93990217Y-72879095D01*
X94179557Y-72782620D01*
X94351459Y-72657727D01*
X94351464Y-72657723D01*
X94501723Y-72507464D01*
X94501727Y-72507459D01*
X94626620Y-72335558D01*
X94631232Y-72326507D01*
X94679205Y-72275709D01*
X94747025Y-72258912D01*
X94813161Y-72281447D01*
X94852204Y-72326504D01*
X94856949Y-72335817D01*
X94981890Y-72507786D01*
X95132213Y-72658109D01*
X95304179Y-72783048D01*
X95304181Y-72783049D01*
X95304184Y-72783051D01*
X95493588Y-72879557D01*
X95695757Y-72945246D01*
X95905713Y-72978500D01*
X95905714Y-72978500D01*
X96118286Y-72978500D01*
X96118287Y-72978500D01*
X96328243Y-72945246D01*
X96530412Y-72879557D01*
X96719816Y-72783051D01*
X96806138Y-72720335D01*
X96891786Y-72658109D01*
X96891788Y-72658106D01*
X96891792Y-72658104D01*
X97042104Y-72507792D01*
X97042106Y-72507788D01*
X97042109Y-72507786D01*
X97167048Y-72335820D01*
X97167050Y-72335817D01*
X97167051Y-72335816D01*
X97171514Y-72327054D01*
X97219488Y-72276259D01*
X97287308Y-72259463D01*
X97353444Y-72281999D01*
X97392486Y-72327056D01*
X97396951Y-72335820D01*
X97521890Y-72507786D01*
X97672213Y-72658109D01*
X97844179Y-72783048D01*
X97844181Y-72783049D01*
X97844184Y-72783051D01*
X98033588Y-72879557D01*
X98235757Y-72945246D01*
X98445713Y-72978500D01*
X98445714Y-72978500D01*
X98658286Y-72978500D01*
X98658287Y-72978500D01*
X98868243Y-72945246D01*
X99070412Y-72879557D01*
X99259816Y-72783051D01*
X99431792Y-72658104D01*
X99545329Y-72544566D01*
X99606648Y-72511084D01*
X99676340Y-72516068D01*
X99732274Y-72557939D01*
X99749189Y-72588917D01*
X99798202Y-72720328D01*
X99798206Y-72720335D01*
X99884452Y-72835544D01*
X99884455Y-72835547D01*
X99999664Y-72921793D01*
X99999671Y-72921797D01*
X100134517Y-72972091D01*
X100134516Y-72972091D01*
X100141444Y-72972835D01*
X100194127Y-72978500D01*
X101989872Y-72978499D01*
X102049483Y-72972091D01*
X102184331Y-72921796D01*
X102299546Y-72835546D01*
X102385796Y-72720331D01*
X102436091Y-72585483D01*
X102442500Y-72525873D01*
X102442499Y-70730128D01*
X102436091Y-70670517D01*
X102434810Y-70667083D01*
X102385797Y-70535671D01*
X102385793Y-70535664D01*
X102299547Y-70420455D01*
X102299544Y-70420452D01*
X102184335Y-70334206D01*
X102184328Y-70334202D01*
X102049482Y-70283908D01*
X102049483Y-70283908D01*
X101989883Y-70277501D01*
X101989881Y-70277500D01*
X101989873Y-70277500D01*
X101989864Y-70277500D01*
X100194129Y-70277500D01*
X100194123Y-70277501D01*
X100134516Y-70283908D01*
X99999671Y-70334202D01*
X99999664Y-70334206D01*
X99884455Y-70420452D01*
X99884452Y-70420455D01*
X99798206Y-70535664D01*
X99798203Y-70535669D01*
X99749189Y-70667083D01*
X99707317Y-70723016D01*
X99641853Y-70747433D01*
X99573580Y-70732581D01*
X99545326Y-70711430D01*
X99431786Y-70597890D01*
X99259820Y-70472951D01*
X99070414Y-70376444D01*
X99070413Y-70376443D01*
X99070412Y-70376443D01*
X98868243Y-70310754D01*
X98868241Y-70310753D01*
X98868240Y-70310753D01*
X98706957Y-70285208D01*
X98658287Y-70277500D01*
X98445713Y-70277500D01*
X98397042Y-70285208D01*
X98235760Y-70310753D01*
X98033585Y-70376444D01*
X97844179Y-70472951D01*
X97672213Y-70597890D01*
X97521890Y-70748213D01*
X97396949Y-70920182D01*
X97392484Y-70928946D01*
X97344509Y-70979742D01*
X97276688Y-70996536D01*
X97210553Y-70973998D01*
X97171516Y-70928946D01*
X97167050Y-70920182D01*
X97042109Y-70748213D01*
X96891786Y-70597890D01*
X96719820Y-70472951D01*
X96530414Y-70376444D01*
X96530413Y-70376443D01*
X96530412Y-70376443D01*
X96328243Y-70310754D01*
X96328241Y-70310753D01*
X96328240Y-70310753D01*
X96166957Y-70285208D01*
X96118287Y-70277500D01*
X95905713Y-70277500D01*
X95857042Y-70285208D01*
X95695760Y-70310753D01*
X95493585Y-70376444D01*
X95304179Y-70472951D01*
X95132213Y-70597890D01*
X94981890Y-70748213D01*
X94856949Y-70920182D01*
X94852202Y-70929499D01*
X94804227Y-70980293D01*
X94736405Y-70997087D01*
X94670271Y-70974548D01*
X94631234Y-70929495D01*
X94626622Y-70920444D01*
X94501727Y-70748540D01*
X94501723Y-70748535D01*
X94351464Y-70598276D01*
X94351459Y-70598272D01*
X94179557Y-70473379D01*
X93990215Y-70376903D01*
X93788124Y-70311241D01*
X93722000Y-70300768D01*
X93722000Y-71194988D01*
X93664993Y-71162075D01*
X93537826Y-71128000D01*
X93406174Y-71128000D01*
X93279007Y-71162075D01*
X93222000Y-71194988D01*
X93222000Y-70300768D01*
X93221999Y-70300768D01*
X93155875Y-70311241D01*
X92953784Y-70376903D01*
X92764442Y-70473379D01*
X92592540Y-70598272D01*
X92592535Y-70598276D01*
X92442276Y-70748535D01*
X92442272Y-70748540D01*
X92317379Y-70920442D01*
X92220904Y-71109782D01*
X92155242Y-71311870D01*
X92155242Y-71311873D01*
X92144769Y-71378000D01*
X85844500Y-71378000D01*
X85844500Y-65048648D01*
X111094500Y-65048648D01*
X111094500Y-65253351D01*
X111126522Y-65455534D01*
X111189781Y-65650223D01*
X111282715Y-65832613D01*
X111403028Y-65998213D01*
X111547786Y-66142971D01*
X111666500Y-66229220D01*
X111713390Y-66263287D01*
X111770679Y-66292477D01*
X111895776Y-66356218D01*
X111895778Y-66356218D01*
X111895781Y-66356220D01*
X112000137Y-66390127D01*
X112090465Y-66419477D01*
X112191557Y-66435488D01*
X112292648Y-66451500D01*
X112292649Y-66451500D01*
X112497351Y-66451500D01*
X112497352Y-66451500D01*
X112699534Y-66419477D01*
X112894219Y-66356220D01*
X113076610Y-66263287D01*
X113169590Y-66195732D01*
X113242213Y-66142971D01*
X113242215Y-66142968D01*
X113242219Y-66142966D01*
X113386966Y-65998219D01*
X113386968Y-65998215D01*
X113386971Y-65998213D01*
X113479236Y-65871219D01*
X113507287Y-65832610D01*
X113600220Y-65650219D01*
X113663477Y-65455534D01*
X113695500Y-65253352D01*
X113695500Y-65048648D01*
X114523500Y-65048648D01*
X114523500Y-65253351D01*
X114555522Y-65455534D01*
X114618781Y-65650223D01*
X114711715Y-65832613D01*
X114832028Y-65998213D01*
X114976786Y-66142971D01*
X115095500Y-66229220D01*
X115142390Y-66263287D01*
X115199679Y-66292477D01*
X115324776Y-66356218D01*
X115324778Y-66356218D01*
X115324781Y-66356220D01*
X115429137Y-66390127D01*
X115519465Y-66419477D01*
X115620557Y-66435488D01*
X115721648Y-66451500D01*
X115721649Y-66451500D01*
X115926351Y-66451500D01*
X115926352Y-66451500D01*
X116128534Y-66419477D01*
X116323219Y-66356220D01*
X116505610Y-66263287D01*
X116598590Y-66195732D01*
X116671213Y-66142971D01*
X116671215Y-66142968D01*
X116671219Y-66142966D01*
X116815966Y-65998219D01*
X116815968Y-65998215D01*
X116815971Y-65998213D01*
X116908236Y-65871219D01*
X116936287Y-65832610D01*
X117029220Y-65650219D01*
X117092477Y-65455534D01*
X117124500Y-65253352D01*
X117124500Y-65048648D01*
X117092477Y-64846466D01*
X117088577Y-64834464D01*
X117029218Y-64651776D01*
X116964510Y-64524781D01*
X116936287Y-64469390D01*
X116884177Y-64397666D01*
X116815971Y-64303786D01*
X116671213Y-64159028D01*
X116505613Y-64038715D01*
X116505612Y-64038714D01*
X116505610Y-64038713D01*
X116448653Y-64009691D01*
X116323223Y-63945781D01*
X116128534Y-63882522D01*
X115953995Y-63854878D01*
X115926352Y-63850500D01*
X115721648Y-63850500D01*
X115697329Y-63854351D01*
X115519465Y-63882522D01*
X115324776Y-63945781D01*
X115142386Y-64038715D01*
X114976786Y-64159028D01*
X114832028Y-64303786D01*
X114711715Y-64469386D01*
X114618781Y-64651776D01*
X114555522Y-64846465D01*
X114523500Y-65048648D01*
X113695500Y-65048648D01*
X113663477Y-64846466D01*
X113659577Y-64834464D01*
X113600218Y-64651776D01*
X113535510Y-64524781D01*
X113507287Y-64469390D01*
X113455177Y-64397666D01*
X113386971Y-64303786D01*
X113242213Y-64159028D01*
X113076613Y-64038715D01*
X113076612Y-64038714D01*
X113076610Y-64038713D01*
X113019653Y-64009691D01*
X112894223Y-63945781D01*
X112699534Y-63882522D01*
X112524995Y-63854878D01*
X112497352Y-63850500D01*
X112292648Y-63850500D01*
X112268329Y-63854351D01*
X112090465Y-63882522D01*
X111895776Y-63945781D01*
X111713386Y-64038715D01*
X111547786Y-64159028D01*
X111403028Y-64303786D01*
X111282715Y-64469386D01*
X111189781Y-64651776D01*
X111126522Y-64846465D01*
X111094500Y-65048648D01*
X85844500Y-65048648D01*
X85844500Y-54888682D01*
X111095000Y-54888682D01*
X111095000Y-55093317D01*
X111127009Y-55295417D01*
X111190244Y-55490031D01*
X111283141Y-55672350D01*
X111283147Y-55672359D01*
X111315523Y-55716921D01*
X111315524Y-55716922D01*
X111995000Y-55037446D01*
X111995000Y-55043661D01*
X112022259Y-55145394D01*
X112074920Y-55236606D01*
X112149394Y-55311080D01*
X112240606Y-55363741D01*
X112342339Y-55391000D01*
X112348553Y-55391000D01*
X111669076Y-56070474D01*
X111713650Y-56102859D01*
X111895968Y-56195755D01*
X112090582Y-56258990D01*
X112292683Y-56291000D01*
X112497317Y-56291000D01*
X112699417Y-56258990D01*
X112894031Y-56195755D01*
X113076349Y-56102859D01*
X113120921Y-56070474D01*
X112441447Y-55391000D01*
X112447661Y-55391000D01*
X112549394Y-55363741D01*
X112640606Y-55311080D01*
X112715080Y-55236606D01*
X112767741Y-55145394D01*
X112795000Y-55043661D01*
X112795000Y-55037448D01*
X113474474Y-55716922D01*
X113474474Y-55716921D01*
X113506859Y-55672349D01*
X113599755Y-55490031D01*
X113662990Y-55295417D01*
X113695000Y-55093317D01*
X113695000Y-54888682D01*
X114524000Y-54888682D01*
X114524000Y-55093317D01*
X114556009Y-55295417D01*
X114619244Y-55490031D01*
X114712141Y-55672350D01*
X114712147Y-55672359D01*
X114744523Y-55716921D01*
X114744524Y-55716922D01*
X115424000Y-55037446D01*
X115424000Y-55043661D01*
X115451259Y-55145394D01*
X115503920Y-55236606D01*
X115578394Y-55311080D01*
X115669606Y-55363741D01*
X115771339Y-55391000D01*
X115777553Y-55391000D01*
X115098076Y-56070474D01*
X115142650Y-56102859D01*
X115324968Y-56195755D01*
X115519582Y-56258990D01*
X115721683Y-56291000D01*
X115926317Y-56291000D01*
X116128417Y-56258990D01*
X116323031Y-56195755D01*
X116505349Y-56102859D01*
X116549921Y-56070474D01*
X115870447Y-55391000D01*
X115876661Y-55391000D01*
X115978394Y-55363741D01*
X116069606Y-55311080D01*
X116144080Y-55236606D01*
X116196741Y-55145394D01*
X116224000Y-55043661D01*
X116224000Y-55037447D01*
X116903474Y-55716921D01*
X116935859Y-55672349D01*
X117028755Y-55490031D01*
X117091990Y-55295417D01*
X117124000Y-55093317D01*
X117124000Y-54888682D01*
X117091990Y-54686582D01*
X117028755Y-54491968D01*
X116935859Y-54309650D01*
X116903474Y-54265077D01*
X116903474Y-54265076D01*
X116224000Y-54944551D01*
X116224000Y-54938339D01*
X116196741Y-54836606D01*
X116144080Y-54745394D01*
X116069606Y-54670920D01*
X115978394Y-54618259D01*
X115876661Y-54591000D01*
X115870446Y-54591000D01*
X116549922Y-53911524D01*
X116549921Y-53911523D01*
X116505359Y-53879147D01*
X116505350Y-53879141D01*
X116323031Y-53786244D01*
X116128417Y-53723009D01*
X115926317Y-53691000D01*
X115721683Y-53691000D01*
X115519582Y-53723009D01*
X115324968Y-53786244D01*
X115142644Y-53879143D01*
X115098077Y-53911523D01*
X115098077Y-53911524D01*
X115777554Y-54591000D01*
X115771339Y-54591000D01*
X115669606Y-54618259D01*
X115578394Y-54670920D01*
X115503920Y-54745394D01*
X115451259Y-54836606D01*
X115424000Y-54938339D01*
X115424000Y-54944553D01*
X114744524Y-54265077D01*
X114744523Y-54265077D01*
X114712143Y-54309644D01*
X114619244Y-54491968D01*
X114556009Y-54686582D01*
X114524000Y-54888682D01*
X113695000Y-54888682D01*
X113662990Y-54686582D01*
X113599755Y-54491968D01*
X113506859Y-54309650D01*
X113474474Y-54265077D01*
X113474474Y-54265076D01*
X112795000Y-54944551D01*
X112795000Y-54938339D01*
X112767741Y-54836606D01*
X112715080Y-54745394D01*
X112640606Y-54670920D01*
X112549394Y-54618259D01*
X112447661Y-54591000D01*
X112441446Y-54591000D01*
X113120922Y-53911524D01*
X113120921Y-53911523D01*
X113076359Y-53879147D01*
X113076350Y-53879141D01*
X112894031Y-53786244D01*
X112699417Y-53723009D01*
X112497317Y-53691000D01*
X112292683Y-53691000D01*
X112090582Y-53723009D01*
X111895968Y-53786244D01*
X111713644Y-53879143D01*
X111669077Y-53911523D01*
X111669077Y-53911524D01*
X112348554Y-54591000D01*
X112342339Y-54591000D01*
X112240606Y-54618259D01*
X112149394Y-54670920D01*
X112074920Y-54745394D01*
X112022259Y-54836606D01*
X111995000Y-54938339D01*
X111995000Y-54944553D01*
X111315524Y-54265077D01*
X111315523Y-54265077D01*
X111283143Y-54309644D01*
X111190244Y-54491968D01*
X111127009Y-54686582D01*
X111095000Y-54888682D01*
X85844500Y-54888682D01*
X85844500Y-52694500D01*
X85864185Y-52627461D01*
X85916989Y-52581706D01*
X85968500Y-52570500D01*
X110278121Y-52570500D01*
X132278325Y-52570500D01*
X156719763Y-52570500D01*
X156786802Y-52590185D01*
G37*
%TD.AperFunction*%
%TD*%
%TA.AperFunction,Conductor*%
%TO.N,+3.3V*%
G36*
X126353895Y-54019685D02*
G01*
X126399650Y-54072489D01*
X126409594Y-54141647D01*
X126397341Y-54180295D01*
X126303244Y-54364968D01*
X126240009Y-54559582D01*
X126208000Y-54761682D01*
X126208000Y-54966317D01*
X126240009Y-55168417D01*
X126303244Y-55363031D01*
X126396141Y-55545350D01*
X126396147Y-55545359D01*
X126428523Y-55589921D01*
X126428524Y-55589922D01*
X127108000Y-54910446D01*
X127108000Y-54916661D01*
X127135259Y-55018394D01*
X127187920Y-55109606D01*
X127262394Y-55184080D01*
X127353606Y-55236741D01*
X127455339Y-55264000D01*
X127461553Y-55264000D01*
X126782076Y-55943474D01*
X126826650Y-55975859D01*
X127008968Y-56068755D01*
X127203582Y-56131990D01*
X127405683Y-56164000D01*
X127610317Y-56164000D01*
X127812417Y-56131990D01*
X128007031Y-56068755D01*
X128189349Y-55975859D01*
X128233921Y-55943474D01*
X127554447Y-55264000D01*
X127560661Y-55264000D01*
X127662394Y-55236741D01*
X127753606Y-55184080D01*
X127828080Y-55109606D01*
X127880741Y-55018394D01*
X127908000Y-54916661D01*
X127908000Y-54910447D01*
X128587474Y-55589921D01*
X128619859Y-55545349D01*
X128712755Y-55363031D01*
X128775990Y-55168417D01*
X128808000Y-54966317D01*
X128808000Y-54761682D01*
X128775990Y-54559582D01*
X128712755Y-54364968D01*
X128618659Y-54180295D01*
X128605763Y-54111626D01*
X128632039Y-54046885D01*
X128689146Y-54006628D01*
X128729144Y-54000000D01*
X129654856Y-54000000D01*
X129721895Y-54019685D01*
X129767650Y-54072489D01*
X129777594Y-54141647D01*
X129765341Y-54180295D01*
X129671244Y-54364968D01*
X129608009Y-54559582D01*
X129576000Y-54761682D01*
X129576000Y-54966317D01*
X129608009Y-55168417D01*
X129671244Y-55363031D01*
X129764141Y-55545350D01*
X129764147Y-55545359D01*
X129796523Y-55589921D01*
X129796524Y-55589922D01*
X130476000Y-54910446D01*
X130476000Y-54916661D01*
X130503259Y-55018394D01*
X130555920Y-55109606D01*
X130630394Y-55184080D01*
X130721606Y-55236741D01*
X130823339Y-55264000D01*
X130829553Y-55264000D01*
X130150076Y-55943474D01*
X130194650Y-55975859D01*
X130376968Y-56068755D01*
X130571582Y-56131990D01*
X130773683Y-56164000D01*
X130978317Y-56164000D01*
X131180417Y-56131990D01*
X131375031Y-56068755D01*
X131557349Y-55975859D01*
X131601921Y-55943474D01*
X130922447Y-55264000D01*
X130928661Y-55264000D01*
X131030394Y-55236741D01*
X131121606Y-55184080D01*
X131196080Y-55109606D01*
X131248741Y-55018394D01*
X131276000Y-54916661D01*
X131276000Y-54910447D01*
X131955474Y-55589921D01*
X131987859Y-55545349D01*
X132080755Y-55363031D01*
X132143990Y-55168417D01*
X132176000Y-54966317D01*
X132176000Y-54761682D01*
X132143990Y-54559582D01*
X132080755Y-54364968D01*
X131986659Y-54180295D01*
X131973763Y-54111626D01*
X132000039Y-54046885D01*
X132057146Y-54006628D01*
X132097144Y-54000000D01*
X148876000Y-54000000D01*
X148943039Y-54019685D01*
X148988794Y-54072489D01*
X149000000Y-54124000D01*
X149000000Y-73445704D01*
X148980315Y-73512743D01*
X148927511Y-73558498D01*
X148876000Y-73569704D01*
X132968733Y-73569704D01*
X132901694Y-73550019D01*
X132855939Y-73497215D01*
X132844733Y-73445704D01*
X132844733Y-68004161D01*
X132844733Y-68004159D01*
X132810625Y-67876865D01*
X132744733Y-67762737D01*
X132651547Y-67669551D01*
X132594483Y-67636605D01*
X132537420Y-67603659D01*
X132473772Y-67586605D01*
X132410125Y-67569551D01*
X120124000Y-67569551D01*
X120056961Y-67549866D01*
X120011206Y-67497062D01*
X120000000Y-67445551D01*
X120000000Y-64921648D01*
X126207500Y-64921648D01*
X126207500Y-65126351D01*
X126239522Y-65328534D01*
X126302781Y-65523223D01*
X126395715Y-65705613D01*
X126516028Y-65871213D01*
X126660786Y-66015971D01*
X126815749Y-66128556D01*
X126826390Y-66136287D01*
X126942607Y-66195503D01*
X127008776Y-66229218D01*
X127008778Y-66229218D01*
X127008781Y-66229220D01*
X127113137Y-66263127D01*
X127203465Y-66292477D01*
X127304557Y-66308488D01*
X127405648Y-66324500D01*
X127405649Y-66324500D01*
X127610351Y-66324500D01*
X127610352Y-66324500D01*
X127812534Y-66292477D01*
X128007219Y-66229220D01*
X128189610Y-66136287D01*
X128282590Y-66068732D01*
X128355213Y-66015971D01*
X128355215Y-66015968D01*
X128355219Y-66015966D01*
X128499966Y-65871219D01*
X128499968Y-65871215D01*
X128499971Y-65871213D01*
X128552732Y-65798590D01*
X128620287Y-65705610D01*
X128713220Y-65523219D01*
X128776477Y-65328534D01*
X128808500Y-65126352D01*
X128808500Y-64921648D01*
X129575500Y-64921648D01*
X129575500Y-65126351D01*
X129607522Y-65328534D01*
X129670781Y-65523223D01*
X129763715Y-65705613D01*
X129884028Y-65871213D01*
X130028786Y-66015971D01*
X130183749Y-66128556D01*
X130194390Y-66136287D01*
X130310607Y-66195503D01*
X130376776Y-66229218D01*
X130376778Y-66229218D01*
X130376781Y-66229220D01*
X130481137Y-66263127D01*
X130571465Y-66292477D01*
X130672557Y-66308488D01*
X130773648Y-66324500D01*
X130773649Y-66324500D01*
X130978351Y-66324500D01*
X130978352Y-66324500D01*
X131180534Y-66292477D01*
X131375219Y-66229220D01*
X131557610Y-66136287D01*
X131650590Y-66068732D01*
X131723213Y-66015971D01*
X131723215Y-66015968D01*
X131723219Y-66015966D01*
X131867966Y-65871219D01*
X131867968Y-65871215D01*
X131867971Y-65871213D01*
X131920732Y-65798590D01*
X131988287Y-65705610D01*
X132081220Y-65523219D01*
X132144477Y-65328534D01*
X132176500Y-65126352D01*
X132176500Y-64921648D01*
X132144477Y-64719466D01*
X132081220Y-64524781D01*
X132081218Y-64524778D01*
X132081218Y-64524776D01*
X132047503Y-64458607D01*
X131988287Y-64342390D01*
X131980556Y-64331749D01*
X131867971Y-64176786D01*
X131723213Y-64032028D01*
X131557613Y-63911715D01*
X131557612Y-63911714D01*
X131557610Y-63911713D01*
X131500653Y-63882691D01*
X131375223Y-63818781D01*
X131180534Y-63755522D01*
X131005995Y-63727878D01*
X130978352Y-63723500D01*
X130773648Y-63723500D01*
X130749329Y-63727351D01*
X130571465Y-63755522D01*
X130376776Y-63818781D01*
X130194386Y-63911715D01*
X130028786Y-64032028D01*
X129884028Y-64176786D01*
X129763715Y-64342386D01*
X129670781Y-64524776D01*
X129607522Y-64719465D01*
X129575500Y-64921648D01*
X128808500Y-64921648D01*
X128776477Y-64719466D01*
X128713220Y-64524781D01*
X128713218Y-64524778D01*
X128713218Y-64524776D01*
X128679503Y-64458607D01*
X128620287Y-64342390D01*
X128612556Y-64331749D01*
X128499971Y-64176786D01*
X128355213Y-64032028D01*
X128189613Y-63911715D01*
X128189612Y-63911714D01*
X128189610Y-63911713D01*
X128132653Y-63882691D01*
X128007223Y-63818781D01*
X127812534Y-63755522D01*
X127637995Y-63727878D01*
X127610352Y-63723500D01*
X127405648Y-63723500D01*
X127381329Y-63727351D01*
X127203465Y-63755522D01*
X127008776Y-63818781D01*
X126826386Y-63911715D01*
X126660786Y-64032028D01*
X126516028Y-64176786D01*
X126395715Y-64342386D01*
X126302781Y-64524776D01*
X126239522Y-64719465D01*
X126207500Y-64921648D01*
X120000000Y-64921648D01*
X120000000Y-54124000D01*
X120019685Y-54056961D01*
X120072489Y-54011206D01*
X120124000Y-54000000D01*
X126286856Y-54000000D01*
X126353895Y-54019685D01*
G37*
%TD.AperFunction*%
%TD*%
M02*
